<svg xmlns="http://www.w3.org/2000/svg" width="921.4" height="350.3" viewBox="0 0 921.4 350.3">
  <defs>
    <style>
      .cls-1 {
        fill: #fff;
      }

      .cls-2 {
        fill: #eaf06f;
      }

      .cls-3 {
        fill: #6f9a92;
      }

      .cls-4 {
        fill: #de6f6f;
      }
    </style>
  </defs>
  <g id="croptor">
    <path class="cls-2" d="M190,183.2a1.9,1.9,0,0,0,2.8-1.2,77.2,77.2,0,0,0-74.3-95.5,90.8,90.8,0,0,0-9.1.5,1.9,1.9,0,0,0-1.6,1.9l-.3,45a1.8,1.8,0,0,0,1,1.6Z"/>
    <path class="cls-3" d="M64.5,214.2a1.9,1.9,0,0,0-.4,3,75.8,75.8,0,0,0,14.5,11A76.6,76.6,0,0,0,188,192.8a1.9,1.9,0,0,0-.7-2.4l-38.8-22.8a2.1,2.1,0,0,0-1.9,0Z"/>
    <path class="cls-4" d="M101,90.8a1.9,1.9,0,0,0-2.4-1.9,78.3,78.3,0,0,0-16.8,6.9A76.9,76.9,0,0,0,52,200.5a65.2,65.2,0,0,0,4.8,7.6,2,2,0,0,0,2.5.6l39.3-21.9a1.8,1.8,0,0,0,.9-1.6Z"/>
    <g id="CROPTOR-2" data-name="CROPTOR">
      <path class="cls-3" d="M320.4,126.3v13a1.7,1.7,0,0,1-1.6,1.7H281c-7.7,0-13.6,1.7-17.8,5.1a20.5,20.5,0,0,0-6.1,6.3,27.1,27.1,0,0,0-4.5,14.6c0,4.9,1.7,9.9,5.2,15.1s7.3,7.2,13.4,9.3a34.2,34.2,0,0,0,9.8,1.1h37.8a1.6,1.6,0,0,1,1.6,1.6v13a1.5,1.5,0,0,1-1.3,1.6H282.7c-9.7,0-17-1.2-21.7-3.6a41.2,41.2,0,0,1-21.9-21.9,39.6,39.6,0,0,1-3.4-16.5,41.4,41.4,0,0,1,9.5-26.7,45.9,45.9,0,0,1,10.1-8.9c5.7-3.3,10.8-5.3,15.5-5.8,1.6-.5,8.1-.8,19.5-.8h28.5A1.7,1.7,0,0,1,320.4,126.3Z"/>
      <path class="cls-3" d="M329.2,126.3a1.8,1.8,0,0,1,1.7-1.7h52.4c9.5,0,17,2.9,22.4,8.6a21.8,21.8,0,0,1,5.1,6.6,27.3,27.3,0,0,1,3.1,12.3v2.4c0,6.1-2.6,12.1-7.9,18h-.1a33,33,0,0,1-7.3,5.4,1.6,1.6,0,0,0-.5,2.5c5.8,7,8.8,15.9,9.1,26.6a1.8,1.8,0,0,1-1.7,1.7H390.2v-1.3A25.6,25.6,0,0,0,379,185.6c-4.2-3-9.8-4.5-16.6-4.5H330.9a1.7,1.7,0,0,1-1.7-1.7V166.6a1.7,1.7,0,0,1,1.7-1.7h53.5c5.9,0,10-2.9,12.2-8.8a.4.4,0,0,1,.1-.3c.2-1.1.3-2,.4-2.8v-.2a12.4,12.4,0,0,0-4-8.8l-.3-.2a11.9,11.9,0,0,0-7.5-2.7c0-.2-.8-.2-2.4-.2h-52a1.8,1.8,0,0,1-1.7-1.7Z"/>
      <path class="cls-3" d="M464.8,124.7h.6c12.9,0,23.9,5.3,33.1,15.8h.1a42.7,42.7,0,0,1,8.8,25.9v.6c0,12.9-5.4,23.9-16.2,32.9h-.1a42.5,42.5,0,0,1-25.8,8.7h-.6c-12.8,0-23.8-5.2-32.9-15.7h-.2a50,50,0,0,1-6.6-12.3,41.9,41.9,0,0,1-2.3-13.7v-.6c0-12.7,5.2-23.5,15.6-32.5l.2-.2c7-5,13.5-7.8,19.3-8.4A33.1,33.1,0,0,1,464.8,124.7Zm-25.3,41.9c0,7.3,2.9,13.7,8.5,19.3h.2c5.1,4.3,10.4,6.5,16,6.5h1.6c4.5,0,9.1-1.6,13.8-4.7a25.9,25.9,0,0,0,9.8-13.5c.6-1.4.9-3.9,1.2-7.3v-.2c0-7.1-2.8-13.4-8.3-18.9h-.1c-5.2-4.6-10.9-6.9-17.2-6.9s-13.6,3-19.3,9.1h-.1a23.8,23.8,0,0,0-4.4,7.9A25.2,25.2,0,0,0,439.5,166.6Z"/>
      <path class="cls-3" d="M516.3,126.4a1.6,1.6,0,0,1,1.7-1.7h45.2c16.9,0,28.7,7.4,35.3,22.2a37.1,37.1,0,0,1,2.4,13.4c0,9.9-3.9,18.5-11.6,25.9a37.5,37.5,0,0,1-17.4,8.5.1.1,0,0,0-.1.1,62.2,62.2,0,0,1-8,.5l-29,.3a1.7,1.7,0,0,0-1.6,1.7v9.8a1.7,1.7,0,0,1-1.7,1.7H517.9a1.6,1.6,0,0,1-1.7-1.7V180.6a1.6,1.6,0,0,1,1.7-1.6h44.6c6,0,10.4-1.2,13.2-3.4s6.1-6,7.7-11v-.2a19.3,19.3,0,0,0,.5-3.5v-1.7c0-4.4-1.9-8.7-5.6-12.8l-.2-.2a19.3,19.3,0,0,0-13-5.1H518a1.7,1.7,0,0,1-1.7-1.7Z"/>
      <path class="cls-3" d="M611.3,124.7h81.4a1.7,1.7,0,0,1,1.7,1.7v12.9a1.8,1.8,0,0,1-1.7,1.7H662.2a1.6,1.6,0,0,0-1.6,1.7v64.4a1.7,1.7,0,0,1-1.7,1.7H645.2a1.6,1.6,0,0,1-1.7-1.7V142.7a1.7,1.7,0,0,0-1.7-1.7H611.3a1.7,1.7,0,0,1-1.6-1.7V126.4A1.6,1.6,0,0,1,611.3,124.7Z"/>
      <path class="cls-3" d="M745.3,124.7h.6c12.9,0,23.9,5.3,33,15.8h.1c5.9,8,8.9,16.6,8.9,25.9v.6c0,12.9-5.4,23.9-16.2,32.9h-.1a42.8,42.8,0,0,1-25.9,8.7h-.5c-12.9,0-23.8-5.2-33-15.7h-.1a50.7,50.7,0,0,1-6.7-12.3,44.7,44.7,0,0,1-2.3-13.7v-.6c0-12.7,5.3-23.5,15.7-32.5l.2-.2c7-5,13.4-7.8,19.3-8.4A33.1,33.1,0,0,1,745.3,124.7ZM720,166.6c0,7.3,2.8,13.7,8.5,19.3h.1c5.1,4.3,10.5,6.5,16,6.5h1.7c4.5,0,9.1-1.6,13.8-4.7a25.9,25.9,0,0,0,9.8-13.5A29.5,29.5,0,0,0,771,167v-.2c0-7.1-2.7-13.4-8.3-18.9h-.1q-7.8-6.9-17.1-6.9c-7.2,0-13.7,3-19.3,9.1H726a25.8,25.8,0,0,0-4.4,7.9A25,25,0,0,0,720,166.6Z"/>
      <path class="cls-3" d="M796.6,126.3a1.8,1.8,0,0,1,1.7-1.7h52.4c9.6,0,17.1,2.9,22.5,8.6a21.3,21.3,0,0,1,5,6.6,27.5,27.5,0,0,1,3.2,12.3v2.4c0,6.1-2.7,12.1-8,18h-.1A29,29,0,0,1,866,178a1.6,1.6,0,0,0-.5,2.5c5.8,7,8.8,15.9,9.1,26.6a1.7,1.7,0,0,1-1.7,1.7H857.6v-1.3a25.7,25.7,0,0,0-11.1-21.9c-4.3-3-9.8-4.5-16.7-4.5H798.3a1.7,1.7,0,0,1-1.7-1.7V166.6a1.7,1.7,0,0,1,1.7-1.7h53.5c6,0,10.1-2.9,12.2-8.8v-.3c.2-1.1.3-2,.4-2.8v-.2a12.4,12.4,0,0,0-4-8.8l-.2-.2a12.3,12.3,0,0,0-7.5-2.7c0-.2-.8-.2-2.5-.2h-52a1.8,1.8,0,0,1-1.7-1.7Z"/>
    </g>
  </g>
</svg>
