<svg xmlns="http://www.w3.org/2000/svg" xmlns:xlink="http://www.w3.org/1999/xlink" width="143" height="23.5" viewBox="0 0 143 23.5">
  <defs>
    <style>
      .cls-1 {
        fill: #3b5997;
      }

      .cls-2 {
        fill: #fff;
      }

      .cls-3 {
        fill: url(#linear-gradient);
      }
    </style>
    <linearGradient id="linear-gradient" x1="-956.32" y1="-185.63" x2="-956.32" y2="-186.09" gradientTransform="translate(38267.2 7404.2) scale(40 39.78)" gradientUnits="userSpaceOnUse">
      <stop offset="0" stop-color="#0062e0"/>
      <stop offset="1" stop-color="#19afff"/>
    </linearGradient>
  </defs>
  <g id="Layer_2" data-name="Layer 2">
    <g id="account">
      <g id="Log_in_Sign_Up" data-name="Log in / Sign Up">
        <g id="Log_in" data-name="Log in">
          <g id="alternative_ways_login" data-name="alternative ways login">
            <g id="log_in_with_facebook" data-name="log in with facebook">
              <rect class="cls-1" width="143" height="23.49" rx="3.1"/>
              <g>
                <path class="cls-2" d="M29.5,15.3V8h1.1v6.6l-.2-.3H34v1Z"/>
                <path class="cls-2" d="M37,15.4l-1.1-.2-.8-.5a4.1,4.1,0,0,1-.5-.9,3.6,3.6,0,0,1-.2-1.1,2.9,2.9,0,0,1,.3-1.4,1.8,1.8,0,0,1,.9-1A3.3,3.3,0,0,1,37,9.9l1,.2a2.8,2.8,0,0,1,.9.6,2.2,2.2,0,0,1,.5.8,5,5,0,0,1,.2,1.2,3.2,3.2,0,0,1-.3,1.4,4.3,4.3,0,0,1-.9,1A3.2,3.2,0,0,1,37,15.4Zm0-.8a1.1,1.1,0,0,0,.8-.3,1,1,0,0,0,.5-.6,1.6,1.6,0,0,0,.2-1,1.9,1.9,0,0,0-.1-.8l-.3-.6a1,1,0,0,0-.5-.4H37l-.8.2-.6.7a2.5,2.5,0,0,0-.2,1,2.4,2.4,0,0,0,.2.8.9.9,0,0,0,.3.6l.5.3Z"/>
                <path class="cls-2" d="M42.8,17.1l-1.1-.2a1.8,1.8,0,0,1-.7-.5,2,2,0,0,1-.4-.8h1c.1.1.1.3.2.4l.5.2h1.4l.4-.4a1.1,1.1,0,0,0,.2-.8V13.9h-.1a1.2,1.2,0,0,1-.6.8,2,2,0,0,1-1.1.3,1.5,1.5,0,0,1-.9-.2l-.6-.4a3.5,3.5,0,0,1-.5-.8,4.1,4.1,0,0,1-.1-1.1,2.9,2.9,0,0,1,.3-1.4,1.6,1.6,0,0,1,.7-.9,2.2,2.2,0,0,1,2.2,0,1.6,1.6,0,0,1,.6.8h.1V10h1v4.8a3.7,3.7,0,0,1-.1,1.1,2,2,0,0,1-.6.7l-.7.4Zm.1-2.9.7-.2a.8.8,0,0,0,.5-.5,2.5,2.5,0,0,0,.2-.7v-.7a1.4,1.4,0,0,0-.2-.6,1,1,0,0,0-.4-.5,1.3,1.3,0,0,0-.8-.3l-.8.2-.5.6a3,3,0,0,0-.2,1,2,2,0,0,0,.2.9,1,1,0,0,0,.5.6Z"/>
                <path class="cls-2" d="M49.1,15.3V8h1.1v7.3Z"/>
                <path class="cls-2" d="M51.8,15.3V10h1v1.1h.1a2.2,2.2,0,0,1,.7-.9,2.3,2.3,0,0,1,1.1-.3l.8.2c.2,0,.4.2.6.4a1.1,1.1,0,0,1,.3.6,3.6,3.6,0,0,1,.2,1.1v3.1h-1V12.4a2,2,0,0,0-.2-.9A1,1,0,0,0,55,11l-.7-.2-.8.2-.5.6a1.9,1.9,0,0,0-.2.8v2.9Z"/>
                <path class="cls-2" d="M60.9,15.3,59.6,10h1l1.1,4.3h0l1-4.3h1.1l1,4.3h.1l1-4.3h1l-1.3,5.3H64.2l-1-4h0l-1,4Z"/>
                <path class="cls-2" d="M67.7,9.2V8h1V9.2Zm0,6.1V10h1v5.3Z"/>
                <path class="cls-2" d="M71.7,15.3H71l-.4-.4a3.5,3.5,0,0,1-.1-.6V10.9h-1V10h1V8.5h1.1V10h1.1v.9H71.6V14c0,.2,0,.3.1.4h1v.8Z"/>
                <path class="cls-2" d="M73.7,15.3V8h1.1v3.1h0a2.2,2.2,0,0,1,.7-.9,2.3,2.3,0,0,1,1.1-.3l.8.2c.2,0,.4.2.6.4l.4.6a3.7,3.7,0,0,1,.1,1.1v3.1h-1V12.4a2,2,0,0,0-.2-.9.7.7,0,0,0-.4-.5l-.7-.2-.7.2a3.4,3.4,0,0,0-.6.6,1.9,1.9,0,0,0-.1.8v2.9Z"/>
                <path class="cls-2" d="M82.3,15.3V8h5.1V9H83.2l.2-.2v2.7l-.2-.2H87v.9H83.2l.2-.2v3.3Z"/>
                <path class="cls-2" d="M90.1,15.4l-.9-.2-.7-.5a1.9,1.9,0,0,1-.4-.9,3.6,3.6,0,0,1-.2-1.1,3.3,3.3,0,0,1,.3-1.5,1.8,1.8,0,0,1,.8-.9,1.5,1.5,0,0,1,1.1-.4l.8.2.6.4a.9.9,0,0,1,.4.6H92V10h1v5.3H92v-1h-.1a1.8,1.8,0,0,1-.7.8A2,2,0,0,1,90.1,15.4Zm.4-.8a1.1,1.1,0,0,0,.8-.3,1,1,0,0,0,.5-.6,1.7,1.7,0,0,0,.1-.7v-.6a1.9,1.9,0,0,0-.1-.8l-.5-.6-.8-.2-.8.2a1,1,0,0,0-.5.6,3.1,3.1,0,0,0-.2,1.1,3,3,0,0,0,.2,1,1,1,0,0,0,.5.6A1.1,1.1,0,0,0,90.5,14.6Z"/>
                <path class="cls-2" d="M96.6,15.4l-1.1-.2-.8-.5a4.1,4.1,0,0,1-.5-.9,3.6,3.6,0,0,1-.2-1.1,3.7,3.7,0,0,1,.3-1.5,2.8,2.8,0,0,1,1-.9,2.5,2.5,0,0,1,1.3-.4,2.4,2.4,0,0,1,1.2.3,1.8,1.8,0,0,1,.8.7,1.5,1.5,0,0,1,.3,1h-1a.8.8,0,0,0-.2-.6,1,1,0,0,0-.5-.4h-.6l-.8.2a1.2,1.2,0,0,0-.5.7,1.6,1.6,0,0,0-.2,1,1.6,1.6,0,0,0,.2,1,1,1,0,0,0,.5.6,1.1,1.1,0,0,0,.8.3l.7-.2a.8.8,0,0,0,.4-.4c.2-.2.2-.4.3-.6h1a3.6,3.6,0,0,1-.4,1.1,2.7,2.7,0,0,1-.8.7Z"/>
                <path class="cls-2" d="M102.2,15.4a3.2,3.2,0,0,1-1.4-.3,2.7,2.7,0,0,1-.8-1,2.3,2.3,0,0,1-.4-1.4,2.6,2.6,0,0,1,.4-1.5,2.4,2.4,0,0,1,.8-.9,2.6,2.6,0,0,1,2.8,0,2.3,2.3,0,0,1,.8,1.1,3.4,3.4,0,0,1,.2,1.5h-3.9a1.5,1.5,0,0,0,.2.9,1,1,0,0,0,.5.6l.8.2a1.2,1.2,0,0,0,.9-.3c.3-.1.4-.3.5-.6h1a3.6,3.6,0,0,1-.4.9,1.5,1.5,0,0,1-.9.6Zm-1.5-3.1v-.2h3.1v.2a2.9,2.9,0,0,0-.2-.9l-.5-.5h-1.5c-.2.2-.4.3-.5.6A1.9,1.9,0,0,0,100.7,12.3Z"/>
                <path class="cls-2" d="M108.6,15.4h-.8l-.6-.4-.4-.6h-.1v1h-1V8h1v3.1h.1a1.8,1.8,0,0,1,.6-.9,2.4,2.4,0,0,1,1.2-.3l.9.2a1.5,1.5,0,0,1,.6.5,4.1,4.1,0,0,1,.5.9,4.1,4.1,0,0,1,.1,1.2,3.4,3.4,0,0,1-.2,1.5,2.4,2.4,0,0,1-.8.9A2,2,0,0,1,108.6,15.4Zm-.4-.8a1.1,1.1,0,0,0,.8-.3,1,1,0,0,0,.5-.6,3,3,0,0,0,.2-1c0-.3-.1-.6-.1-.8a1.6,1.6,0,0,0-.3-.6,1,1,0,0,0-.5-.4h-.6l-.8.2-.5.6a1.9,1.9,0,0,0-.2.8V13a1.9,1.9,0,0,0,.2.7,1,1,0,0,0,.5.6A1.1,1.1,0,0,0,108.2,14.6Z"/>
                <path class="cls-2" d="M114.2,15.4l-1.1-.2-.8-.5a4.1,4.1,0,0,1-.5-.9,2,2,0,0,1-.2-1.1,2.9,2.9,0,0,1,.3-1.4,1.8,1.8,0,0,1,.9-1,2.9,2.9,0,0,1,1.4-.4l1,.2a2.4,2.4,0,0,1,.8.6,1.4,1.4,0,0,1,.5.8,2.5,2.5,0,0,1,.2,1.2,3.2,3.2,0,0,1-.3,1.4,2.8,2.8,0,0,1-.9,1A2.8,2.8,0,0,1,114.2,15.4Zm0-.8a1.3,1.3,0,0,0,.8-.3,1,1,0,0,0,.5-.6,3,3,0,0,0,.2-1c0-.3-.1-.6-.1-.8l-.3-.6-.5-.4h-.6l-.9.2a1.8,1.8,0,0,0-.5.7,2.5,2.5,0,0,0-.2,1,2.2,2.2,0,0,0,.1.8l.3.6.5.3Z"/>
                <path class="cls-2" d="M120.1,15.4l-1-.2-.8-.5a4.7,4.7,0,0,1-.6-.9,3.7,3.7,0,0,1-.1-1.1,2.9,2.9,0,0,1,.3-1.4,1.8,1.8,0,0,1,.9-1,2.8,2.8,0,0,1,1.3-.4l1.1.2a2.4,2.4,0,0,1,.8.6,2.2,2.2,0,0,1,.5.8,2.5,2.5,0,0,1,.2,1.2,3.2,3.2,0,0,1-.3,1.4,2.8,2.8,0,0,1-.9,1A2.9,2.9,0,0,1,120.1,15.4Zm0-.8a1,1,0,0,0,.8-.3.9.9,0,0,0,.6-.6,3,3,0,0,0,.2-1c0-.3-.1-.6-.1-.8l-.3-.6-.5-.4h-.7l-.8.2a1.8,1.8,0,0,0-.5.7,2.5,2.5,0,0,0-.2,1,2.2,2.2,0,0,0,.1.8l.3.6.5.3Z"/>
                <path class="cls-2" d="M123.8,15.3V8h1v4.6l.5-.5,2-2.1h1.3l-2.1,2.1,2.1,3.2h-1.2l-1.3-2-.3-.5-1,.9v1.6Z"/>
              </g>
              <g>
                <path class="cls-3" d="M12.9,20.6A9.4,9.4,0,0,1,14.4,2,9.4,9.4,0,0,1,16,20.6l-.5-.4H13.4Z"/>
                <path class="cls-2" d="M18.1,14l.4-2.6H16V9.5c0-.7.3-1.3,1.4-1.3h1.2V5.9l-2-.2a3.4,3.4,0,0,0-3.7,3.6v2.1H10.6V14h2.3v6.5l1.6.2,1.5-.2V14Z"/>
              </g>
            </g>
          </g>
        </g>
      </g>
    </g>
  </g>
</svg>
