<svg xmlns="http://www.w3.org/2000/svg" width="143" height="23.5" viewBox="0 0 143 23.5">
  <defs>
    <style>
      .cls-1 {
        fill: #fff;
      }

      .cls-2 {
        fill: #4285f4;
      }

      .cls-3 {
        fill: #34a853;
      }

      .cls-4 {
        fill: #fbbc05;
      }

      .cls-5 {
        fill: #ea4335;
      }

      .cls-6 {
        fill: none;
      }

      .cls-7 {
        fill: #0d1117;
      }
    </style>
  </defs>
  <g id="Layer_2" data-name="Layer 2">
    <g id="account">
      <g id="Log_in_Sign_Up" data-name="Log in / Sign Up">
        <g id="Log_in" data-name="Log in">
          <g id="alternative_ways_login" data-name="alternative ways login">
            <g id="log_in_with_google" data-name="log in with google">
              <rect class="cls-1" width="143" height="23.49" rx="3.1"/>
              <g>
                <path class="cls-2" d="M21.4,12.3a9.9,9.9,0,0,0-.2-1.7H13.8v3.1H18a3.5,3.5,0,0,1-1.5,2.4v2H19A7.7,7.7,0,0,0,21.4,12.3Z"/>
                <path class="cls-3" d="M13.8,20A7.5,7.5,0,0,0,19,18.1l-2.5-2a4.6,4.6,0,0,1-2.7.8,4.6,4.6,0,0,1-4.4-3.3H6.7v2A8,8,0,0,0,13.8,20Z"/>
                <path class="cls-4" d="M9.4,13.6a3.9,3.9,0,0,1,0-3V8.5H6.7a8.6,8.6,0,0,0-.8,3.6,7.8,7.8,0,0,0,.8,3.5L8.8,14Z"/>
                <path class="cls-5" d="M13.8,7.3a4.1,4.1,0,0,1,3,1.2l2.3-2.3a7.6,7.6,0,0,0-5.3-2A7.9,7.9,0,0,0,6.7,8.5l2.7,2.1A4.6,4.6,0,0,1,13.8,7.3Z"/>
                <path class="cls-6" d="M5.9,4.2H21.7V20H5.9Z"/>
              </g>
              <g>
                <path class="cls-7" d="M29.7,15.6V8.3h1.1v6.5l-.2-.2h3.7v1Z"/>
                <path class="cls-7" d="M37.2,15.7l-1-.2a2.4,2.4,0,0,1-.8-.6,2.4,2.4,0,0,1-.6-.8,4.5,4.5,0,0,1-.1-1.2,3.2,3.2,0,0,1,.3-1.4,2.8,2.8,0,0,1,.9-1,2.8,2.8,0,0,1,1.3-.3l1.1.2.8.5a4.1,4.1,0,0,1,.5.9,2,2,0,0,1,.2,1.1,3.7,3.7,0,0,1-.3,1.5,2,2,0,0,1-.9.9A2.9,2.9,0,0,1,37.2,15.7Zm0-.9.8-.2.6-.6a3.6,3.6,0,0,0,.2-1.1c0-.3-.1-.5-.1-.8l-.3-.6-.5-.3h-.7a1.2,1.2,0,0,0-.8.2,1,1,0,0,0-.5.6,3,3,0,0,0-.2,1,1.9,1.9,0,0,0,.1.8l.3.6.5.4Z"/>
                <path class="cls-7" d="M43.1,17.3H42a2.4,2.4,0,0,1-.8-.6,1.9,1.9,0,0,1-.3-.8h1a.5.5,0,0,0,.2.4l.4.3h.6l.8-.2a.7.7,0,0,0,.5-.4,1.5,1.5,0,0,0,.2-.8v-1h-.1a1.6,1.6,0,0,1-.6.8,2,2,0,0,1-1.1.3l-.9-.2a1.8,1.8,0,0,1-.7-.5,2,2,0,0,1-.4-.8,3.6,3.6,0,0,1-.2-1.1,2.5,2.5,0,0,1,.3-1.3,1.8,1.8,0,0,1,.8-.9,2.2,2.2,0,0,1,2.2,0,1.2,1.2,0,0,1,.6.8h.1v-1h1v4.8a3,3,0,0,1-.2,1,1.3,1.3,0,0,1-.5.7,2,2,0,0,1-.8.4Zm0-2.8.8-.2.5-.6a1.4,1.4,0,0,0,.2-.7v-.6a2.5,2.5,0,0,0-.2-.7,1.2,1.2,0,0,0-.5-.5l-.8-.2-.7.2a1,1,0,0,0-.5.6,2.9,2.9,0,0,0-.2.9,3,3,0,0,0,.2,1l.5.6Z"/>
                <path class="cls-7" d="M49.4,15.6V8.3h1.1v7.3Z"/>
                <path class="cls-7" d="M52.1,15.6V10.3h1v1h.1a1.8,1.8,0,0,1,.7-.8,2,2,0,0,1,1.1-.3h.7l.6.4a1.6,1.6,0,0,1,.4.7,3.1,3.1,0,0,1,.1,1v3.2h-1v-3a2.8,2.8,0,0,0-.1-.9,1,1,0,0,0-.4-.5h-.7a1.1,1.1,0,0,0-.8.2,1,1,0,0,0-.5.6,1.9,1.9,0,0,0-.2.8v2.9Z"/>
                <path class="cls-7" d="M61.2,15.6l-1.4-5.3h1.1l1,4.2H62l.9-4.2h1.2l1,4.3h0l1.1-4.3h1l-1.4,5.3H64.5l-1-4h0l-1,4Z"/>
                <path class="cls-7" d="M68,9.5V8.3h1V9.5Zm0,6.1V10.3h1v5.3Z"/>
                <path class="cls-7" d="M71.9,15.6l-.7-.2a.5.5,0,0,1-.3-.3,1.3,1.3,0,0,1-.1-.6V11.1h-1v-.8h1V8.8l1-.2v1.7H73v.8H71.8v3.2c0,.2,0,.3.1.3H73v.9Z"/>
                <path class="cls-7" d="M74,15.6V8.3h1v3h.1a1.8,1.8,0,0,1,.7-.8,2,2,0,0,1,1.1-.3h.7a.9.9,0,0,1,.6.4,1.6,1.6,0,0,1,.4.7,3,3,0,0,1,.2,1v3.2H77.7v-3a2.8,2.8,0,0,0-.1-.9,1,1,0,0,0-.4-.5h-.7a1.1,1.1,0,0,0-.8.2,1,1,0,0,0-.5.6,1.9,1.9,0,0,0-.2.8v2.9Z"/>
                <path class="cls-7" d="M85.6,15.7l-1.5-.3a2.8,2.8,0,0,1-1.1-.8,3.5,3.5,0,0,1-.7-1.2,6.1,6.1,0,0,1-.2-1.5,6.8,6.8,0,0,1,.2-1.5,2.5,2.5,0,0,1,.8-1.2,2.6,2.6,0,0,1,1.1-.7,3.3,3.3,0,0,1,1.5-.3,4.1,4.1,0,0,1,1.6.3,2.7,2.7,0,0,1,1.2.9,2.9,2.9,0,0,1,.5,1.3H87.9a2,2,0,0,0-.4-.8,2.4,2.4,0,0,0-.8-.6h-1a2.5,2.5,0,0,0-1.3.3,2,2,0,0,0-.9.9,3.3,3.3,0,0,0-.3,1.5,2.2,2.2,0,0,0,.2,1.2,1.3,1.3,0,0,0,.5.9,2.2,2.2,0,0,0,1.7.7l1.3-.2a2,2,0,0,0,.8-.8,2.8,2.8,0,0,0,.3-1.3v-.2l.4.4H85.7v-.8h3.4v.5a3.2,3.2,0,0,1-.2,1.4,4.1,4.1,0,0,1-.7,1.1,3.9,3.9,0,0,1-1.1.6A3.7,3.7,0,0,1,85.6,15.7Z"/>
                <path class="cls-7" d="M92.6,15.7l-1.1-.2a2.4,2.4,0,0,1-.8-.6,2.2,2.2,0,0,1-.5-.8,4.3,4.3,0,0,1-.2-1.2,3.2,3.2,0,0,1,.3-1.4,2.8,2.8,0,0,1,.9-1,3.2,3.2,0,0,1,1.4-.3l1,.2a1.6,1.6,0,0,1,.8.5,2.4,2.4,0,0,1,.6.9,3.6,3.6,0,0,1,.2,1.1,3.7,3.7,0,0,1-.3,1.5l-.9.9A3.3,3.3,0,0,1,92.6,15.7Zm0-.9.8-.2.5-.6a3.6,3.6,0,0,0,.2-1.1,2.2,2.2,0,0,0-.1-.8l-.3-.6-.5-.3h-.6a1.1,1.1,0,0,0-.8.2c-.3.1-.4.3-.6.6a3,3,0,0,0-.2,1c0,.3.1.6.1.8a.9.9,0,0,0,.4.6c.1.2.3.3.4.4Z"/>
                <path class="cls-7" d="M98.6,15.7l-1.1-.2a2.4,2.4,0,0,1-.8-.6,2.2,2.2,0,0,1-.5-.8,2.3,2.3,0,0,1-.2-1.2,3.2,3.2,0,0,1,.3-1.4,2.8,2.8,0,0,1,.9-1,2.9,2.9,0,0,1,1.4-.3l1,.2.8.5a4.7,4.7,0,0,1,.6.9,3.7,3.7,0,0,1,.1,1.1,3.7,3.7,0,0,1-.3,1.5,2,2,0,0,1-.9.9A2.5,2.5,0,0,1,98.6,15.7Zm0-.9.8-.2.5-.6a3.6,3.6,0,0,0,.2-1.1,2.2,2.2,0,0,0-.1-.8l-.3-.6-.5-.3h-.6a1.1,1.1,0,0,0-.8.2c-.3.1-.4.3-.6.6a3,3,0,0,0-.2,1c0,.3.1.6.1.8a1.6,1.6,0,0,0,.3.6l.5.4Z"/>
                <path class="cls-7" d="M104.4,17.3h-1.1a2,2,0,0,1-.7-.6,2,2,0,0,1-.4-.8h1c.1.2.1.3.2.4l.4.3h.6a1.5,1.5,0,0,0,.8-.2c.3,0,.4-.2.5-.4a1.5,1.5,0,0,0,.2-.8v-1h-.1a1.6,1.6,0,0,1-.6.8,2,2,0,0,1-1.1.3l-.9-.2-.7-.5-.4-.8a3.7,3.7,0,0,1-.1-1.1,4.4,4.4,0,0,1,.2-1.3,2.4,2.4,0,0,1,.8-.9,2.2,2.2,0,0,1,2.2,0,1.2,1.2,0,0,1,.6.8h.1v-1h1v4.8a1.6,1.6,0,0,1-.2,1,1.3,1.3,0,0,1-.5.7l-.8.4Zm0-2.8.8-.2.5-.6a1.4,1.4,0,0,0,.2-.7v-.6a2.5,2.5,0,0,0-.2-.7.8.8,0,0,0-.5-.5l-.7-.2-.8.2a1,1,0,0,0-.5.6,2.9,2.9,0,0,0-.2.9,3,3,0,0,0,.2,1l.5.6Z"/>
                <path class="cls-7" d="M108.3,15.6V8.3h1v7.3Z"/>
                <path class="cls-7" d="M113,15.7a2.1,2.1,0,0,1-1.4-.4,2,2,0,0,1-.9-.9,3.2,3.2,0,0,1-.3-1.4,3.3,3.3,0,0,1,.3-1.5,2.8,2.8,0,0,1,.9-1,2.8,2.8,0,0,1,1.3-.3,2.4,2.4,0,0,1,1.5.4,2.7,2.7,0,0,1,.8,1,3.8,3.8,0,0,1,.1,1.5h-3.9a3,3,0,0,0,.2,1c.2.2.3.4.6.5a1.1,1.1,0,0,0,.8.2,1.5,1.5,0,0,0,.9-.2,1,1,0,0,0,.4-.7h1a1.3,1.3,0,0,1-.4.9,1.6,1.6,0,0,1-.8.6A2,2,0,0,1,113,15.7Zm-1.6-3.1v-.2h3.1v.2a1.3,1.3,0,0,0-.1-.9.8.8,0,0,0-.5-.5l-.8-.2-.8.2-.5.5C111.5,12,111.5,12.2,111.4,12.6Z"/>
              </g>
            </g>
          </g>
        </g>
      </g>
    </g>
  </g>
</svg>
