<svg xmlns="http://www.w3.org/2000/svg" width="143" height="23.5" viewBox="0 0 143 23.5">
  <defs>
    <style>
      .cls-1 {
        fill: #fff;
      }

      .cls-2 {
        fill: #4285f4;
      }

      .cls-3 {
        fill: #34a853;
      }

      .cls-4 {
        fill: #fbbc05;
      }

      .cls-5 {
        fill: #ea4335;
      }

      .cls-6 {
        fill: none;
      }

      .cls-7 {
        fill: #0d1117;
      }
    </style>
  </defs>
  <g id="Layer_2" data-name="Layer 2">
    <g id="account">
      <g id="Log_in_Sign_Up" data-name="Log in / Sign Up">
        <g id="Sign_Up" data-name="Sign Up">
          <g id="alternative_ways_sign_up" data-name="alternative ways sign up">
            <g id="sign_up_with_google_copy_2" data-name="sign up with google copy 2">
              <rect class="cls-1" width="143" height="23.49" rx="3.1"/>
              <g>
                <path class="cls-2" d="M21.4,12.3a9.9,9.9,0,0,0-.2-1.7H13.8v3.1H18a3.5,3.5,0,0,1-1.5,2.4v2H19A7.7,7.7,0,0,0,21.4,12.3Z"/>
                <path class="cls-3" d="M13.8,20A7.5,7.5,0,0,0,19,18.1l-2.5-2a4.6,4.6,0,0,1-2.7.8,4.6,4.6,0,0,1-4.4-3.3H6.7v2A8,8,0,0,0,13.8,20Z"/>
                <path class="cls-4" d="M9.4,13.6a3.9,3.9,0,0,1,0-3V8.5H6.7a8.6,8.6,0,0,0-.8,3.6,7.8,7.8,0,0,0,.8,3.5L8.8,14Z"/>
                <path class="cls-5" d="M13.8,7.3a4.1,4.1,0,0,1,3,1.2l2.3-2.3a7.6,7.6,0,0,0-5.3-2A7.9,7.9,0,0,0,6.7,8.5l2.7,2.1A4.6,4.6,0,0,1,13.8,7.3Z"/>
                <path class="cls-6" d="M5.9,4.2H21.7V20H5.9Z"/>
              </g>
              <g>
                <path class="cls-7" d="M32.2,15.7a3.5,3.5,0,0,1-1.6-.3,1.8,1.8,0,0,1-1-.9,2.1,2.1,0,0,1-.3-1.2h1.1a1.9,1.9,0,0,0,.2.8,1,1,0,0,0,.6.5l1,.2a2.1,2.1,0,0,0,1.2-.3.9.9,0,0,0,.5-.8,1.1,1.1,0,0,0-.1-.6l-.3-.4-.6-.2-.9-.2a3.5,3.5,0,0,1-1.1-.3l-.8-.3-.5-.6a1.9,1.9,0,0,1-.2-.8,1.5,1.5,0,0,1,.4-1.1,1.6,1.6,0,0,1,.9-.7,3.2,3.2,0,0,1,1.4-.3,3.3,3.3,0,0,1,1.5.3,2.8,2.8,0,0,1,.9.7,2,2,0,0,1,.3,1.1H33.7a1.4,1.4,0,0,0-.2-.7l-.6-.4L32.1,9l-.8.2a.7.7,0,0,0-.5.4c-.2.1-.2.3-.2.5a.8.8,0,0,0,.2.7l.6.3,1.1.3,1,.2c.3,0,.5.2.8.3l.5.6a1.8,1.8,0,0,1,.2,1.1,2.3,2.3,0,0,1-.3,1.1,2,2,0,0,1-1,.7A3.3,3.3,0,0,1,32.2,15.7Z"/>
                <path class="cls-7" d="M36.2,9.5V8.3h1V9.5Zm0,6.1V10.3h1v5.3Z"/>
                <path class="cls-7" d="M40.7,17.3H39.6a2,2,0,0,1-.7-.6,2,2,0,0,1-.4-.8h1c.1.2.1.3.2.4l.5.3h.6l.8-.2c.2,0,.3-.2.4-.4s.2-.4.2-.8v-1h-.1a1.6,1.6,0,0,1-.6.8,2,2,0,0,1-1.1.3l-.9-.2a1.5,1.5,0,0,1-.6-.5,2.2,2.2,0,0,1-.5-.8,3.7,3.7,0,0,1-.1-1.1,2.5,2.5,0,0,1,.3-1.3,1.6,1.6,0,0,1,.7-.9,2.2,2.2,0,0,1,2.2,0,1.2,1.2,0,0,1,.6.8h.1v-1h1v4.8a3.1,3.1,0,0,1-.1,1c-.2.3-.3.6-.6.7a1.5,1.5,0,0,1-.8.4Zm.1-2.8.7-.2a1.3,1.3,0,0,0,.5-.6,1.4,1.4,0,0,0,.2-.7v-.6a2.5,2.5,0,0,0-.2-.7,1,1,0,0,0-.4-.5l-.8-.2-.8.2a1,1,0,0,0-.5.6,2.9,2.9,0,0,0-.2.9,3,3,0,0,0,.2,1l.5.6Z"/>
                <path class="cls-7" d="M44.6,15.6V10.3h1v1h.1a2.7,2.7,0,0,1,.7-.8,2,2,0,0,1,1.1-.3h.7a.9.9,0,0,1,.6.4,1.6,1.6,0,0,1,.4.7,3,3,0,0,1,.2,1v3.2h-1v-3a2.9,2.9,0,0,0-.2-.9,1,1,0,0,0-.4-.5h-.7a1.2,1.2,0,0,0-.8.2,1,1,0,0,0-.5.6,1.9,1.9,0,0,0-.2.8v2.9Z"/>
                <path class="cls-7" d="M56.1,15.7a2.7,2.7,0,0,1-1.6-.4,1.8,1.8,0,0,1-1-.9,2.8,2.8,0,0,1-.4-1.5V8.3h1.1v4.6a3,3,0,0,0,.2,1c.2.2.4.5.7.6l1,.2,1.1-.2c.2-.2.5-.4.6-.7a2.4,2.4,0,0,0,.2-.9V8.3h1.1v4.6a2.8,2.8,0,0,1-.4,1.5,2.2,2.2,0,0,1-1,.9A2.7,2.7,0,0,1,56.1,15.7Z"/>
                <path class="cls-7" d="M60.6,17.2V10.3h1v1h0a1.8,1.8,0,0,1,.7-.8,2,2,0,0,1,1.1-.3l.9.2a1.8,1.8,0,0,1,.7.5,1.9,1.9,0,0,1,.4.9,3.6,3.6,0,0,1,.2,1.1,3.3,3.3,0,0,1-.3,1.5,2.2,2.2,0,0,1-.7.9,1.7,1.7,0,0,1-1.2.4l-.8-.2-.6-.4a.9.9,0,0,1-.4-.6h0v2.7Zm2.6-2.4.7-.2c.3-.1.4-.3.5-.6a2,2,0,0,0,.2-1.1,1.6,1.6,0,0,0-.2-1c-.1-.3-.2-.5-.5-.6a.9.9,0,0,0-.7-.3,1.4,1.4,0,0,0-.9.3c-.2.1-.3.3-.5.6a1.7,1.7,0,0,0-.1.7v.6a1.3,1.3,0,0,0,.1.6.5.5,0,0,0,.3.5.8.8,0,0,0,.4.4Z"/>
                <path class="cls-7" d="M69.7,15.6l-1.3-5.3h1l1.1,4.2h0l1-4.2h1.1l1,4.3h.1l1-4.3h1l-1.3,5.3H73l-1-4h0l-1,4Z"/>
                <path class="cls-7" d="M76.5,9.5V8.3h1V9.5Zm0,6.1V10.3h1v5.3Z"/>
                <path class="cls-7" d="M80.5,15.6l-.7-.2c-.2,0-.3-.2-.4-.3s-.1-.4-.1-.6V11.1h-1v-.8h1V8.8l1.1-.2v1.7h1.1v.8H80.4v3.2c0,.2,0,.3.1.3h1v.9Z"/>
                <path class="cls-7" d="M82.5,15.6V8.3h1.1v3h0a2.7,2.7,0,0,1,.7-.8,2.3,2.3,0,0,1,1.1-.3h.8l.6.4a4.3,4.3,0,0,1,.4.7,3.1,3.1,0,0,1,.1,1v3.2h-1v-3a2.9,2.9,0,0,0-.2-.9.7.7,0,0,0-.4-.5H85a.8.8,0,0,0-.7.2c-.3.1-.4.3-.6.6a1.9,1.9,0,0,0-.1.8v2.9Z"/>
                <path class="cls-7" d="M94.2,15.7a3.3,3.3,0,0,1-1.5-.3,2.8,2.8,0,0,1-1.1-.8,2.4,2.4,0,0,1-.7-1.2,3.3,3.3,0,0,1-.3-1.5,3.7,3.7,0,0,1,.3-1.5,2.4,2.4,0,0,1,.7-1.2,2.6,2.6,0,0,1,1.1-.7l1.5-.3a4.7,4.7,0,0,1,1.7.3,3.1,3.1,0,0,1,1.1.9,2.1,2.1,0,0,1,.5,1.3H96.4a1.2,1.2,0,0,0-.4-.8,2.4,2.4,0,0,0-.8-.6h-1a2.8,2.8,0,0,0-1.3.3,2,2,0,0,0-.9.9,3.3,3.3,0,0,0-.3,1.5,3.7,3.7,0,0,0,.2,1.2,1.9,1.9,0,0,0,.5.9l.8.5a1.6,1.6,0,0,0,1,.2l1.3-.2.8-.8a2.8,2.8,0,0,0,.3-1.3v-.2l.3.4H94.3v-.8h3.4v.5a3.2,3.2,0,0,1-.3,1.4,2.6,2.6,0,0,1-.7,1.1,3.9,3.9,0,0,1-1.1.6A3.2,3.2,0,0,1,94.2,15.7Z"/>
                <path class="cls-7" d="M101.1,15.7l-1-.2a1.7,1.7,0,0,1-.8-.6,1.6,1.6,0,0,1-.6-.8,4.3,4.3,0,0,1-.2-1.2,3.2,3.2,0,0,1,.3-1.4l.9-1a3.2,3.2,0,0,1,1.4-.3l1.1.2.8.5a4.1,4.1,0,0,1,.5.9,3.6,3.6,0,0,1,.2,1.1,3.7,3.7,0,0,1-.3,1.5,2,2,0,0,1-.9.9A2.9,2.9,0,0,1,101.1,15.7Zm0-.9.8-.2.6-.6a3.7,3.7,0,0,0,.1-1.1,2.2,2.2,0,0,0-.1-.8.9.9,0,0,0-.3-.6l-.4-.3h-.7a1.1,1.1,0,0,0-.8.2,1,1,0,0,0-.5.6,1.6,1.6,0,0,0-.2,1,1.9,1.9,0,0,0,.1.8,1.6,1.6,0,0,0,.3.6,1,1,0,0,0,.5.4Z"/>
                <path class="cls-7" d="M107.1,15.7l-1-.2-.9-.6a2.2,2.2,0,0,1-.5-.8,4.3,4.3,0,0,1-.2-1.2,3.2,3.2,0,0,1,.3-1.4,2.8,2.8,0,0,1,.9-1,3.2,3.2,0,0,1,1.4-.3l1.1.2.8.5a4.1,4.1,0,0,1,.5.9,3.6,3.6,0,0,1,.2,1.1,3.7,3.7,0,0,1-.3,1.5,2,2,0,0,1-.9.9A3.3,3.3,0,0,1,107.1,15.7Zm0-.9.8-.2.5-.6a2,2,0,0,0,.2-1.1,2.2,2.2,0,0,0-.1-.8.9.9,0,0,0-.3-.6l-.5-.3h-.6a1.1,1.1,0,0,0-.8.2,1,1,0,0,0-.5.6,1.6,1.6,0,0,0-.2,1,1.9,1.9,0,0,0,.1.8.6.6,0,0,0,.3.6,1,1,0,0,0,.5.4Z"/>
                <path class="cls-7" d="M113,17.3h-1.1a1.7,1.7,0,0,1-.8-.6,1.1,1.1,0,0,1-.3-.8h1a.5.5,0,0,0,.2.4l.4.3h.6l.8-.2a.7.7,0,0,0,.5-.4,1.7,1.7,0,0,0,.1-.8v-1h0a1.9,1.9,0,0,1-1.8,1.1l-.8-.2a1.8,1.8,0,0,1-.7-.5,2,2,0,0,1-.4-.8,3.6,3.6,0,0,1-.2-1.1,2.5,2.5,0,0,1,.3-1.3,2.2,2.2,0,0,1,.7-.9,2.3,2.3,0,0,1,1.1-.3,1.8,1.8,0,0,1,1.1.3,1.4,1.4,0,0,1,.7.8h0v-1h1v4.8a3,3,0,0,1-.2,1,1.3,1.3,0,0,1-.5.7l-.8.4Zm0-2.8.8-.2.5-.6a1.5,1.5,0,0,0,.1-.7v-.6a2,2,0,0,0-.1-.7,1.2,1.2,0,0,0-.5-.5L113,11l-.8.2c-.2.1-.3.3-.5.6a2.8,2.8,0,0,0-.1.9,3.1,3.1,0,0,0,.1,1l.5.6Z"/>
                <path class="cls-7" d="M116.9,15.6V8.3h1v7.3Z"/>
                <path class="cls-7" d="M121.5,15.7a2.3,2.3,0,0,1-1.4-.4,2.4,2.4,0,0,1-.8-.9,3.3,3.3,0,0,1-.4-1.4,3.3,3.3,0,0,1,.4-1.5,3.9,3.9,0,0,1,.8-1,3.2,3.2,0,0,1,1.4-.3,2.3,2.3,0,0,1,1.4.4,1.6,1.6,0,0,1,.8,1,3.9,3.9,0,0,1,.2,1.5H120a1.6,1.6,0,0,0,.2,1,1.2,1.2,0,0,0,.5.5,1.1,1.1,0,0,0,.8.2c.4,0,.7,0,.9-.2a1.2,1.2,0,0,0,.5-.7h1a1.9,1.9,0,0,1-.4.9,1.5,1.5,0,0,1-.9.6A2,2,0,0,1,121.5,15.7ZM120,12.6v-.2H123v.2a2,2,0,0,0-.2-.9.8.8,0,0,0-.5-.5l-.7-.2-.8.2a1.2,1.2,0,0,0-.5.5A2.4,2.4,0,0,0,120,12.6Z"/>
              </g>
            </g>
          </g>
        </g>
      </g>
    </g>
  </g>
</svg>
