<svg xmlns="http://www.w3.org/2000/svg" xmlns:xlink="http://www.w3.org/1999/xlink" width="143" height="23.5" viewBox="0 0 143 23.5">
  <defs>
    <style>
      .cls-1 {
        fill: #3b5997;
      }

      .cls-2 {
        fill: #fff;
      }

      .cls-3 {
        fill: url(#linear-gradient);
      }
    </style>
    <linearGradient id="linear-gradient" x1="-956.32" y1="-185.63" x2="-956.32" y2="-186.09" gradientTransform="translate(38267.2 7404.2) scale(40 39.78)" gradientUnits="userSpaceOnUse">
      <stop offset="0" stop-color="#0062e0"/>
      <stop offset="1" stop-color="#19afff"/>
    </linearGradient>
  </defs>
  <g id="Layer_2" data-name="Layer 2">
    <g id="account">
      <g id="Log_in_Sign_Up" data-name="Log in / Sign Up">
        <g id="Sign_Up" data-name="Sign Up">
          <g id="alternative_ways_sign_up" data-name="alternative ways sign up">
            <g id="sign_up_with_facebook_copy_2" data-name="sign up with facebook copy 2">
              <rect class="cls-1" width="143" height="23.49" rx="3.1"/>
              <g>
                <path class="cls-2" d="M31.9,15.4a3.8,3.8,0,0,1-1.6-.3,3.9,3.9,0,0,1-1-.8A2.8,2.8,0,0,1,29,13h1.1a1.9,1.9,0,0,0,.2.8l.6.6,1,.2a2.5,2.5,0,0,0,1.3-.3,1,1,0,0,0,.4-.9.7.7,0,0,0-.1-.5c0-.2-.1-.3-.3-.4l-.6-.3h-.9l-1.1-.3-.8-.4-.5-.6a1.9,1.9,0,0,1-.1-.8,2,2,0,0,1,.3-1.1,2.2,2.2,0,0,1,.9-.7,3.3,3.3,0,0,1,1.5-.3,3.2,3.2,0,0,1,1.4.3,1.8,1.8,0,0,1,.9.8,1.8,1.8,0,0,1,.3,1.1H33.4a1.2,1.2,0,0,0-.2-.7l-.5-.5H31a1,1,0,0,0-.5.4,1.4,1.4,0,0,0-.2.6,1.1,1.1,0,0,0,.2.6.9.9,0,0,0,.6.3l1.2.3.9.2.8.4a1.7,1.7,0,0,1,.6.6,2.5,2.5,0,0,1,.2,1,1.5,1.5,0,0,1-.4,1.1,1.6,1.6,0,0,1-.9.7A3.8,3.8,0,0,1,31.9,15.4Z"/>
                <path class="cls-2" d="M35.9,9.2V8H37V9.2Zm0,6.1V10H37v5.3Z"/>
                <path class="cls-2" d="M40.5,17.1l-1.1-.2-.8-.5a1.1,1.1,0,0,1-.3-.8h1l.2.4.4.2h1.4a1,1,0,0,0,.5-.4A1.9,1.9,0,0,0,42,15V13.9h-.1a1.1,1.1,0,0,1-.7.8,1.7,1.7,0,0,1-1,.3c-.4,0-.7,0-.9-.2l-.7-.4a3,3,0,0,1-.4-.8,4.3,4.3,0,0,1-.2-1.1,2.9,2.9,0,0,1,.3-1.4,2.2,2.2,0,0,1,.7-.9,2.4,2.4,0,0,1,1.2-.3,2.3,2.3,0,0,1,1.1.3,1.6,1.6,0,0,1,.6.8H42V10h1v4.8a3.6,3.6,0,0,1-.2,1.1,1.8,1.8,0,0,1-.5.7,2,2,0,0,1-.8.4Zm0-2.9.8-.2a1.2,1.2,0,0,0,.5-.5,6.4,6.4,0,0,1,.2-.7v-.7a1.3,1.3,0,0,0-.1-.6,1.2,1.2,0,0,0-.5-.5,1.1,1.1,0,0,0-.8-.3l-.7.2a1.3,1.3,0,0,0-.5.6,1.6,1.6,0,0,0-.2,1c0,.4,0,.7.2.9s.2.5.5.6Z"/>
                <path class="cls-2" d="M44.4,15.3V10h.9v1.1h0a1.8,1.8,0,0,1,.8-.9,1.7,1.7,0,0,1,1-.3l.8.2c.2,0,.4.2.6.4s.3.4.4.6a3.7,3.7,0,0,1,.1,1.1v3.1h-1V12.4a2.2,2.2,0,0,0-.1-.9l-.4-.5-.7-.2-.8.2-.5.6a1.1,1.1,0,0,0-.2.8v2.9Z"/>
                <path class="cls-2" d="M55.8,15.4a4.1,4.1,0,0,1-1.6-.3,3.2,3.2,0,0,1-1-1,3.3,3.3,0,0,1-.3-1.5V8h1v4.6a1.7,1.7,0,0,0,.3,1,.9.9,0,0,0,.6.6,2.9,2.9,0,0,0,2.1,0,.9.9,0,0,0,.6-.6,1.6,1.6,0,0,0,.2-1V8h1.1v4.6a3.3,3.3,0,0,1-.3,1.5,3.6,3.6,0,0,1-1.1,1A3.5,3.5,0,0,1,55.8,15.4Z"/>
                <path class="cls-2" d="M60.4,17V10h1v1.1h.1a1.8,1.8,0,0,1,.6-.9,2.1,2.1,0,0,1,1.2-.3l.8.2a1.8,1.8,0,0,1,.7.5,4.1,4.1,0,0,1,.5.9,4.1,4.1,0,0,1,.1,1.2,6.1,6.1,0,0,1-.2,1.5,2.4,2.4,0,0,1-.8.9,2,2,0,0,1-1.1.3h-.8l-.6-.4-.4-.6h-.1V17Zm2.5-2.4a1.1,1.1,0,0,0,.8-.3,1,1,0,0,0,.5-.6,3,3,0,0,0,.2-1,3.6,3.6,0,0,0-.2-1.1,1.5,1.5,0,0,0-.5-.6l-.8-.2-.8.2-.5.6a1.9,1.9,0,0,0-.2.8V13a1.3,1.3,0,0,0,.1.6l.3.5.5.3Z"/>
                <path class="cls-2" d="M69.4,15.3,68.1,10h1.1l1,4.3h0l1-4.3h1.2l1,4.3h0l1-4.3h1.1l-1.4,5.3H72.8l-1-4h-.1l-.9,4Z"/>
                <path class="cls-2" d="M76.2,9.2V8h1.1V9.2Zm0,6.1V10h1.1v5.3Z"/>
                <path class="cls-2" d="M80.2,15.3h-.7c-.2-.1-.3-.2-.3-.4s-.1-.3-.1-.6V10.9h-1V10h1V8.5h1V10h1.2v.9H80.1V14c0,.2,0,.3.1.4h1.1v.8Z"/>
                <path class="cls-2" d="M82.3,15.3V8h1v3.1h.1a1.6,1.6,0,0,1,.7-.9,2,2,0,0,1,1.1-.3l.7.2c.2,0,.4.2.6.4s.3.4.4.6a3.7,3.7,0,0,1,.1,1.1v3.1H86V12.4a2.2,2.2,0,0,0-.1-.9,1,1,0,0,0-.4-.5l-.7-.2L84,11l-.5.6a1.9,1.9,0,0,0-.2.8v2.9Z"/>
                <path class="cls-2" d="M90.8,15.3V8h5.1V9H91.7l.2-.2v2.7l-.2-.2h3.8v.9H91.7l.2-.2v3.3Z"/>
                <path class="cls-2" d="M98.6,15.4l-.8-.2a1.8,1.8,0,0,1-.7-.5,1.9,1.9,0,0,1-.5-.9,3.7,3.7,0,0,1-.1-1.1,6.1,6.1,0,0,1,.2-1.5,2.4,2.4,0,0,1,.8-.9,1.5,1.5,0,0,1,1.1-.4l.8.2.7.4a.9.9,0,0,1,.3.6h.1V10h1v5.3h-1v-1h-.1a1.6,1.6,0,0,1-.6.8A2.1,2.1,0,0,1,98.6,15.4Zm.4-.8a1.1,1.1,0,0,0,.8-.3,1,1,0,0,0,.5-.6,1.9,1.9,0,0,0,.2-.7v-.6a1.9,1.9,0,0,0-.2-.8l-.5-.6-.8-.2-.8.2a1,1,0,0,0-.5.6,3.1,3.1,0,0,0-.2,1.1,3,3,0,0,0,.2,1,1,1,0,0,0,.5.6A1.1,1.1,0,0,0,99,14.6Z"/>
                <path class="cls-2" d="M105.1,15.4l-1-.2-.8-.5a4.7,4.7,0,0,1-.6-.9,3.7,3.7,0,0,1-.1-1.1,3.7,3.7,0,0,1,.3-1.5,2,2,0,0,1,.9-.9,2.9,2.9,0,0,1,1.4-.4,2,2,0,0,1,1.1.3,1.4,1.4,0,0,1,.8.7,2.3,2.3,0,0,1,.4,1h-1c-.1-.3-.1-.5-.3-.6l-.4-.4h-.7l-.8.2a1.8,1.8,0,0,0-.5.7,3,3,0,0,0-.2,1,3,3,0,0,0,.2,1,1,1,0,0,0,.5.6,1.3,1.3,0,0,0,.8.3l.7-.2a1,1,0,0,0,.5-.4,1.4,1.4,0,0,0,.2-.6h1a1.5,1.5,0,0,1-.4,1.1,1.9,1.9,0,0,1-.8.7Z"/>
                <path class="cls-2" d="M110.7,15.4a2.8,2.8,0,0,1-1.3-.3,2.2,2.2,0,0,1-.9-1,3.2,3.2,0,0,1-.3-1.4,3.7,3.7,0,0,1,.3-1.5,2,2,0,0,1,.9-.9,2.5,2.5,0,0,1,1.3-.4,2.6,2.6,0,0,1,1.4.4,2.4,2.4,0,0,1,.9,1.1,3.5,3.5,0,0,1,.1,1.5h-3.9a2.9,2.9,0,0,0,.2.9,1,1,0,0,0,.5.6l.8.2a1.2,1.2,0,0,0,.9-.3c.3-.1.4-.3.5-.6h1a3.6,3.6,0,0,1-.4.9,1.6,1.6,0,0,1-.8.6Zm-1.5-3.1v-.2h3.1v.2a1.5,1.5,0,0,0-.2-.9.8.8,0,0,0-.5-.5h-1.5c-.2.2-.4.3-.5.6A1.9,1.9,0,0,0,109.2,12.3Z"/>
                <path class="cls-2" d="M117.1,15.4h-.8l-.6-.4-.4-.6h0v1h-1V8h1.1v3.1h0a3.1,3.1,0,0,1,.7-.9,2,2,0,0,1,1.1-.3l.9.2a1.8,1.8,0,0,1,.7.5,3.6,3.6,0,0,1,.4.9,3.7,3.7,0,0,1,.2,1.2,3.3,3.3,0,0,1-.3,1.5,1.8,1.8,0,0,1-.8.9A1.8,1.8,0,0,1,117.1,15.4Zm-.3-.8a.9.9,0,0,0,.7-.3c.3-.1.4-.3.5-.6a1.6,1.6,0,0,0,.2-1,1.9,1.9,0,0,0-.1-.8c-.1-.3-.1-.5-.3-.6s-.3-.3-.4-.4h-.6l-.9.2-.5.6a1.9,1.9,0,0,0-.1.8V13a1.7,1.7,0,0,0,.1.7,1,1,0,0,0,.5.6A1.4,1.4,0,0,0,116.8,14.6Z"/>
                <path class="cls-2" d="M122.7,15.4l-1.1-.2-.8-.5a4.1,4.1,0,0,1-.5-.9,3.6,3.6,0,0,1-.2-1.1,2.9,2.9,0,0,1,.3-1.4,1.8,1.8,0,0,1,.9-1,3.3,3.3,0,0,1,1.4-.4l1,.2.9.6a2.2,2.2,0,0,1,.5.8,5,5,0,0,1,.2,1.2,3.2,3.2,0,0,1-.3,1.4,2.8,2.8,0,0,1-.9,1A3.2,3.2,0,0,1,122.7,15.4Zm0-.8a1.1,1.1,0,0,0,.8-.3,1,1,0,0,0,.5-.6,1.6,1.6,0,0,0,.2-1,1.9,1.9,0,0,0-.1-.8l-.3-.6a1,1,0,0,0-.5-.4h-.6l-.8.2-.6.7a2.8,2.8,0,0,0-.1,1,2.2,2.2,0,0,0,.1.8.9.9,0,0,0,.3.6l.5.3Z"/>
                <path class="cls-2" d="M128.7,15.4l-1.1-.2-.8-.5a4.1,4.1,0,0,1-.5-.9,3.6,3.6,0,0,1-.2-1.1,2.9,2.9,0,0,1,.3-1.4,1.8,1.8,0,0,1,.9-1,3.3,3.3,0,0,1,1.4-.4l1,.2a2.8,2.8,0,0,1,.9.6,2.2,2.2,0,0,1,.5.8,5,5,0,0,1,.2,1.2,3.2,3.2,0,0,1-.3,1.4,4.3,4.3,0,0,1-.9,1A3.2,3.2,0,0,1,128.7,15.4Zm0-.8a1.1,1.1,0,0,0,.8-.3,1,1,0,0,0,.5-.6,1.6,1.6,0,0,0,.2-1,1.9,1.9,0,0,0-.1-.8l-.3-.6a1,1,0,0,0-.5-.4h-.6l-.8.2a2,2,0,0,0-.6.7,2.5,2.5,0,0,0-.2,1c0,.3.1.5.1.8l.4.6.4.3Z"/>
                <path class="cls-2" d="M132.3,15.3V8h1.1v4.6l.4-.5,2-2.1h1.3L135,12.1l2.2,3.2H136l-1.4-2-.3-.5-.9.9v1.6Z"/>
              </g>
              <g>
                <path class="cls-3" d="M12.9,20.6A9.4,9.4,0,0,1,14.4,2,9.4,9.4,0,0,1,16,20.6l-.5-.4H13.4Z"/>
                <path class="cls-2" d="M18.1,14l.4-2.6H16V9.5c0-.7.3-1.3,1.4-1.3h1.2V5.9l-2-.2a3.4,3.4,0,0,0-3.7,3.6v2.1H10.6V14h2.3v6.5l1.6.2,1.5-.2V14Z"/>
              </g>
            </g>
          </g>
        </g>
      </g>
    </g>
  </g>
</svg>
