<svg xmlns="http://www.w3.org/2000/svg" viewBox="42.25 86.5 152.75 152.44">
  <defs>
    <style>
      .cls-1 {
        fill: #fff;
      }

      .cls-2 {
        fill: #eaf06f;
      }

      .cls-3 {
        fill: #6f9a92;
      }

      .cls-4 {
        fill: #de6f6f;
      }
    </style><style media="screen"/>
  </defs>
  <g id="croptor">
    <path class="cls-2" d="M190,183.2a1.9,1.9,0,0,0,2.8-1.2,77.2,77.2,0,0,0-74.3-95.5,90.8,90.8,0,0,0-9.1.5,1.9,1.9,0,0,0-1.6,1.9l-.3,45a1.8,1.8,0,0,0,1,1.6Z"/>
    <path class="cls-3" d="M64.5,214.2a1.9,1.9,0,0,0-.4,3,75.8,75.8,0,0,0,14.5,11A76.6,76.6,0,0,0,188,192.8a1.9,1.9,0,0,0-.7-2.4l-38.8-22.8a2.1,2.1,0,0,0-1.9,0Z"/>
    <path class="cls-4" d="M101,90.8a1.9,1.9,0,0,0-2.4-1.9,78.3,78.3,0,0,0-16.8,6.9A76.9,76.9,0,0,0,52,200.5a65.2,65.2,0,0,0,4.8,7.6,2,2,0,0,0,2.5.6l39.3-21.9a1.8,1.8,0,0,0,.9-1.6Z"/>
  </g>
</svg>